<svg width="2048" height="2048" viewBox="0 0 2048 2048" fill="none" xmlns="http://www.w3.org/2000/svg">
<path d="M324 50H1724V1574.52L1024 1989.86L324 1574.52V50Z" stroke="white" stroke-width="100"/>
<path d="M1031.13 706.137L1024 684.184L1016.87 706.137L916.499 1015.04H591.701H568.619L587.293 1028.61L850.06 1219.52L749.692 1528.42L742.559 1550.37L761.233 1536.8L1024 1345.89L1286.77 1536.8L1305.44 1550.37L1298.31 1528.42L1197.94 1219.52L1460.71 1028.61L1479.38 1015.04H1456.3H1131.5L1031.13 706.137ZM1516.5 1163C1516.5 1435 1296 1655.5 1024 1655.5C752 1655.5 531.5 1435 531.5 1163C531.5 891 752 670.5 1024 670.5C1296 670.5 1516.5 891 1516.5 1163Z" fill="#E02020" stroke="white" stroke-width="15"/>
<rect x="274" width="1500" height="500" fill="white"/>
</svg>
