<svg width="2048" height="2048" viewBox="0 0 2048 2048" fill="none" xmlns="http://www.w3.org/2000/svg">
<g filter="url(#filter0_b)">
<rect width="2048" height="2048" fill="white" fill-opacity="0.5"/>
</g>
<g filter="url(#filter1_d)">
<g filter="url(#filter2_d)">
<path d="M433.775 1486.5H363.775C356.442 1486.5 352.275 1483 351.275 1476L297.775 1175.5C296.775 1168.5 300.275 1165 308.275 1165H360.275C367.942 1165 371.942 1168.5 372.275 1175.5L401.275 1422H404.775L452.775 1174C453.775 1168 457.275 1165 463.275 1165H519.275C525.609 1165 529.275 1167.83 530.275 1173.5L579.275 1422H583.275L611.775 1176C612.109 1168.67 616.109 1165 623.775 1165H675.775C683.775 1165 687.275 1168.67 686.275 1176L632.275 1476C631.275 1483 627.442 1486.5 620.775 1486.5H550.275C543.275 1486.5 539.275 1483 538.275 1476L493.275 1241.5H491.275L445.775 1476C444.442 1483 440.442 1486.5 433.775 1486.5ZM759.596 1486.5H711.596C705.596 1486.5 703.596 1483 705.596 1476L784.596 1175.5C786.929 1168.5 791.929 1165 799.596 1165H866.096C874.429 1165 879.429 1168.5 881.096 1175.5L960.096 1476C962.096 1483 960.096 1486.5 954.096 1486.5H906.096C902.429 1486.5 899.929 1485.83 898.596 1484.5C897.262 1482.83 896.262 1480 895.596 1476L881.596 1421H784.096L770.096 1476C769.429 1480 768.262 1482.83 766.596 1484.5C765.262 1485.83 762.929 1486.5 759.596 1486.5ZM832.096 1225.5L796.096 1370H870.096L834.096 1225.5H832.096ZM1103.92 1486.5H1061.92C1054.58 1486.5 1050.92 1483 1050.92 1476V1225.5C1050.92 1221.83 1049.08 1220 1045.42 1220H988.416C981.416 1220 977.916 1216.5 977.916 1209.5V1175.5C977.916 1168.5 981.416 1165 988.416 1165H1177.42C1184.42 1165 1187.92 1168.5 1187.92 1175.5V1209.5C1187.92 1216.5 1184.42 1220 1177.42 1220H1120.42C1116.42 1220 1114.42 1221.83 1114.42 1225.5V1476C1114.42 1483 1110.92 1486.5 1103.92 1486.5ZM1358.1 1486.5H1303.6C1277.26 1486.5 1256.93 1479.5 1242.6 1465.5C1228.26 1451.5 1221.1 1431.33 1221.1 1405V1246.5C1221.1 1220.17 1228.26 1200 1242.6 1186C1256.93 1172 1277.26 1165 1303.6 1165H1358.1C1384.1 1165 1404.26 1172.17 1418.6 1186.5C1433.26 1200.5 1440.6 1220.5 1440.6 1246.5V1270C1440.6 1277.33 1436.93 1281 1429.6 1281H1387.6C1380.6 1281 1377.1 1277.33 1377.1 1270V1249.5C1377.1 1238.83 1374.76 1231.33 1370.1 1227C1365.76 1222.33 1358.26 1220 1347.6 1220H1313.6C1303.26 1220 1295.76 1222.33 1291.1 1227C1286.76 1231.33 1284.6 1238.83 1284.6 1249.5V1402C1284.6 1412.67 1286.76 1420.33 1291.1 1425C1295.76 1429.33 1303.26 1431.5 1313.6 1431.5H1347.6C1358.26 1431.5 1365.76 1429.33 1370.1 1425C1374.76 1420.33 1377.1 1412.67 1377.1 1402V1381.5C1377.1 1374.17 1380.6 1370.5 1387.6 1370.5H1429.6C1436.93 1370.5 1440.6 1374.17 1440.6 1381.5V1405C1440.6 1431 1433.26 1451.17 1418.6 1465.5C1404.26 1479.5 1384.1 1486.5 1358.1 1486.5ZM1548.14 1486.5H1505.64C1498.64 1486.5 1495.14 1483 1495.14 1476V1175.5C1495.14 1168.5 1498.64 1165 1505.64 1165H1548.14C1555.14 1165 1558.64 1168.5 1558.64 1175.5V1293C1558.64 1296.67 1560.64 1298.5 1564.64 1298.5H1649.14C1652.81 1298.5 1654.64 1296.67 1654.64 1293V1175.5C1654.64 1168.5 1658.14 1165 1665.14 1165H1707.64C1714.64 1165 1718.14 1168.5 1718.14 1175.5V1476C1718.14 1483 1714.64 1486.5 1707.64 1486.5H1665.14C1658.14 1486.5 1654.64 1483 1654.64 1476V1359C1654.64 1355.33 1652.81 1353.5 1649.14 1353.5H1564.64C1560.64 1353.5 1558.64 1355.33 1558.64 1359V1476C1558.64 1483 1555.14 1486.5 1548.14 1486.5Z" fill="#0000FF"/>
</g>
<g filter="url(#filter3_d)">
<path d="M571.963 849H517.463C491.13 849 470.796 842 456.463 828C442.13 814 434.963 793.833 434.963 767.5V609C434.963 582.667 442.13 562.5 456.463 548.5C470.796 534.5 491.13 527.5 517.463 527.5H571.963C597.963 527.5 618.13 534.667 632.463 549C647.13 563 654.463 583 654.463 609V632.5C654.463 639.833 650.796 643.5 643.463 643.5H601.463C594.463 643.5 590.963 639.833 590.963 632.5V612C590.963 601.333 588.63 593.833 583.963 589.5C579.63 584.833 572.13 582.5 561.463 582.5H527.463C517.13 582.5 509.63 584.833 504.963 589.5C500.63 593.833 498.463 601.333 498.463 612V764.5C498.463 775.167 500.63 782.833 504.963 787.5C509.63 791.833 517.13 794 527.463 794H561.463C572.13 794 579.63 791.833 583.963 787.5C588.63 782.833 590.963 775.167 590.963 764.5V744C590.963 736.667 594.463 733 601.463 733H643.463C650.796 733 654.463 736.667 654.463 744V767.5C654.463 793.5 647.13 813.667 632.463 828C618.13 842 597.963 849 571.963 849ZM742.506 849H694.506C688.506 849 686.506 845.5 688.506 838.5L767.506 538C769.839 531 774.839 527.5 782.506 527.5H849.006C857.339 527.5 862.339 531 864.006 538L943.006 838.5C945.006 845.5 943.006 849 937.006 849H889.006C885.339 849 882.839 848.333 881.506 847C880.173 845.333 879.173 842.5 878.506 838.5L864.506 783.5H767.006L753.006 838.5C752.339 842.5 751.173 845.333 749.506 847C748.173 848.333 745.839 849 742.506 849ZM815.006 588L779.006 732.5H853.006L817.006 588H815.006ZM979.326 767V757C979.326 750 982.826 746.5 989.826 746.5H1032.33C1039.33 746.5 1042.83 750 1042.83 757V761C1042.83 773.667 1045.33 782.333 1050.33 787C1055.33 791.667 1064.49 794 1077.83 794H1101.33C1114.33 794 1123.33 791.5 1128.33 786.5C1133.66 781.5 1136.33 772.167 1136.33 758.5V752.5C1136.33 742.833 1132.33 735.5 1124.33 730.5C1116.66 725.167 1106.99 722 1095.33 721C1083.66 720 1070.99 718.167 1057.33 715.5C1043.99 712.5 1031.49 708.833 1019.83 704.5C1008.16 699.833 998.326 691 990.326 678C982.66 664.667 978.826 647.667 978.826 627V609.5C978.826 583.5 986.16 563.333 1000.83 549C1015.49 534.667 1035.83 527.5 1061.83 527.5H1111.83C1138.16 527.5 1158.66 534.667 1173.33 549C1187.99 563.333 1195.33 583.5 1195.33 609.5V619C1195.33 626 1191.83 629.5 1184.83 629.5H1142.33C1135.33 629.5 1131.83 626 1131.83 619V616C1131.83 603 1129.33 594.167 1124.33 589.5C1119.33 584.833 1110.16 582.5 1096.83 582.5H1077.33C1063.66 582.5 1054.33 585.167 1049.33 590.5C1044.66 595.5 1042.33 605.5 1042.33 620.5V630C1042.33 645.667 1055.99 654.667 1083.33 657C1111.66 659.333 1136.83 665 1158.83 674C1170.49 679 1180.16 688 1187.83 701C1195.83 713.667 1199.83 730 1199.83 750V767C1199.83 793 1192.49 813.167 1177.83 827.5C1163.16 841.833 1142.83 849 1116.83 849H1062.33C1036.33 849 1015.99 841.833 1001.33 827.5C986.66 813.167 979.326 793 979.326 767ZM1322.86 538V838.5C1322.86 845.5 1319.36 849 1312.36 849H1269.86C1262.86 849 1259.36 845.5 1259.36 838.5V538C1259.36 531 1262.86 527.5 1269.86 527.5H1312.36C1319.36 527.5 1322.86 531 1322.86 538ZM1477.66 794H1513.16C1523.82 794 1531.32 791.833 1535.66 787.5C1540.32 782.833 1542.66 775.167 1542.66 764.5V612C1542.66 601.333 1540.32 593.833 1535.66 589.5C1531.32 584.833 1523.82 582.5 1513.16 582.5H1477.66C1466.99 582.5 1459.49 584.833 1455.16 589.5C1450.82 593.833 1448.66 601.333 1448.66 612V764.5C1448.66 775.167 1450.82 782.833 1455.16 787.5C1459.49 791.833 1466.99 794 1477.66 794ZM1523.66 849H1467.66C1441.32 849 1420.99 842 1406.66 828C1392.32 814 1385.16 793.833 1385.16 767.5V609C1385.16 582.667 1392.32 562.5 1406.66 548.5C1420.99 534.5 1441.32 527.5 1467.66 527.5H1523.66C1549.99 527.5 1570.32 534.5 1584.66 548.5C1598.99 562.5 1606.16 582.667 1606.16 609V767.5C1606.16 793.833 1598.99 814 1584.66 828C1570.32 842 1549.99 849 1523.66 849Z" fill="#0000FF"/>
</g>
</g>
<defs>
<filter id="filter0_b" x="-50" y="-50" width="2148" height="2148" filterUnits="userSpaceOnUse" color-interpolation-filters="sRGB">
<feFlood flood-opacity="0" result="BackgroundImageFix"/>
<feGaussianBlur in="BackgroundImage" stdDeviation="25"/>
<feComposite in2="SourceAlpha" operator="in" result="effect1_backgroundBlur"/>
<feBlend mode="normal" in="SourceGraphic" in2="effect1_backgroundBlur" result="shape"/>
</filter>
<filter id="filter1_d" x="287.609" y="517.5" width="1440.53" height="979" filterUnits="userSpaceOnUse" color-interpolation-filters="sRGB">
<feFlood flood-opacity="0" result="BackgroundImageFix"/>
<feColorMatrix in="SourceAlpha" type="matrix" values="0 0 0 0 0 0 0 0 0 0 0 0 0 0 0 0 0 0 127 0"/>
<feOffset/>
<feGaussianBlur stdDeviation="5"/>
<feColorMatrix type="matrix" values="0 0 0 0 0 0 0 0 0 0 0 0 0 0 0 0 0 0 0.5 0"/>
<feBlend mode="normal" in2="BackgroundImageFix" result="effect1_dropShadow"/>
<feBlend mode="normal" in="SourceGraphic" in2="effect1_dropShadow" result="shape"/>
</filter>
<filter id="filter2_d" x="297.609" y="1165" width="1430.53" height="331.5" filterUnits="userSpaceOnUse" color-interpolation-filters="sRGB">
<feFlood flood-opacity="0" result="BackgroundImageFix"/>
<feColorMatrix in="SourceAlpha" type="matrix" values="0 0 0 0 0 0 0 0 0 0 0 0 0 0 0 0 0 0 127 0"/>
<feOffset dx="5" dy="5"/>
<feGaussianBlur stdDeviation="2.5"/>
<feColorMatrix type="matrix" values="0 0 0 0 0 0 0 0 0 0 0 0 0 0 0 0 0 0 1 0"/>
<feBlend mode="normal" in2="BackgroundImageFix" result="effect1_dropShadow"/>
<feBlend mode="normal" in="SourceGraphic" in2="effect1_dropShadow" result="shape"/>
</filter>
<filter id="filter3_d" x="434.963" y="527.5" width="1181.2" height="331.5" filterUnits="userSpaceOnUse" color-interpolation-filters="sRGB">
<feFlood flood-opacity="0" result="BackgroundImageFix"/>
<feColorMatrix in="SourceAlpha" type="matrix" values="0 0 0 0 0 0 0 0 0 0 0 0 0 0 0 0 0 0 127 0"/>
<feOffset dx="5" dy="5"/>
<feGaussianBlur stdDeviation="2.5"/>
<feColorMatrix type="matrix" values="0 0 0 0 0 0 0 0 0 0 0 0 0 0 0 0 0 0 1 0"/>
<feBlend mode="normal" in2="BackgroundImageFix" result="effect1_dropShadow"/>
<feBlend mode="normal" in="SourceGraphic" in2="effect1_dropShadow" result="shape"/>
</filter>
</defs>
</svg>
