<?xml version="1.0" encoding="UTF-8"?>
<svg width="512px" height="512px" viewBox="0 0 512 512" version="1.1" xmlns="http://www.w3.org/2000/svg" xmlns:xlink="http://www.w3.org/1999/xlink">
    <title>Untitled</title>
    <g id="Page-1" stroke="none" stroke-width="1" fill="none" fill-rule="evenodd">
        <g id="email" fill="#000000" fill-rule="nonzero">
            <path d="M386,53 C386,58.523438 381.523438,63 376,63 C370.476562,63 366,58.523438 366,53 C366,47.476562 370.476562,43 376,43 C381.523438,43 386,47.476562 386,53 Z" id="Path"></path>
            <path d="M255.998384,146 C184.317024,146 126,204.31747 126,276 C126,347.68253 184.317024,406 255.998384,406 C274.271703,406 291.946957,402.280703 308.533571,394.946367 C313.02391,392.960641 315.054099,387.71063 313.068361,383.219511 C311.081814,378.728392 305.830154,376.70064 301.341432,378.684749 C287.035548,385.011271 271.779226,388.219791 255.998384,388.219791 C194.121254,388.219791 143.78032,337.878361 143.78032,276 C143.78032,214.121639 194.121254,163.780209 255.998384,163.780209 C317.877129,163.780209 368.21968,214.121639 368.21968,276 C368.21968,287.726048 366.419827,299.278335 362.872653,310.3352 C355.230348,334.142901 342.67421,341.48936 336.563437,340.538927 C330.703205,339.620821 330.248191,330.857603 330.248191,328.193804 L330.248191,222.607648 C330.248191,217.697886 326.267824,213.717543 321.358031,213.717543 C316.448238,213.717543 312.467871,217.697886 312.467871,222.607648 L312.467871,227.83907 C298.839256,211.880524 278.581006,201.749846 255.999192,201.749846 C215.057581,201.749846 181.748576,235.058644 181.748576,276 C181.748576,316.941356 215.057581,350.250154 255.999192,350.250154 C278.581006,350.250154 298.839256,340.119476 312.467871,324.16093 L312.467871,328.193804 C312.467871,344.334193 320.846443,356.074789 333.813953,358.105774 C349.159986,360.502869 369.343881,348.353329 379.801942,315.768671 C383.914853,302.953181 386,289.572765 386,276 C386,204.31747 327.681359,146 255.998384,146 Z M255.500809,332 C224.346603,332 199,306.65376 199,275.5 C199,244.34624 224.346603,219 255.500809,219 C286.654206,219 312,244.34624 312,275.5 C312,306.65376 286.654206,332 255.500809,332 Z" id="XMLID_440_"></path>
            <path d="M376,106 L136,106 C108.429688,106 86,128.429688 86,156 L86,396 C86,423.570312 108.429688,446 136,446 L376,446 C403.570312,446 426,423.570312 426,396 L426,156 C426,128.429688 403.570312,106 376,106 Z M406,396 C406,412.542969 392.542969,426 376,426 L136,426 C119.457031,426 106,412.542969 106,396 C106,247.028646 106,167.028646 106,156 C106,139.457031 119.457031,126 136,126 L376,126 C392.542969,126 406,139.457031 406,156 L406,396 Z" id="Shape"></path>
            <path d="M462,0 L50,0 C22.429688,0 0,22.429688 0,50 L0,462 C0,489.570312 22.429688,512 50,512 L462,512 C489.570312,512 512,489.570312 512,462 L512,50 C512,22.429688 489.570312,0 462,0 Z M492,462 C492,478.542969 478.542969,492 462,492 L50,492 C33.457031,492 20,478.542969 20,462 L20,50 C20,33.457031 33.457031,20 50,20 L462,20 C478.542969,20 492,33.457031 492,50 L492,462 Z" id="Shape"></path>
            <path d="M136,63 L336,63 C341.523438,63 346,58.523438 346,53 C346,47.476562 341.523438,43 336,43 L136,43 C130.476562,43 126,47.476562 126,53 C126,58.523438 130.476562,63 136,63 Z" id="Path"></path>
        </g>
    </g>
</svg>