<svg width="2048" height="2048" viewBox="0 0 2048 2048" fill="none" xmlns="http://www.w3.org/2000/svg">
<path fill-rule="evenodd" clip-rule="evenodd" d="M1143.33 352.626C1135.07 335.147 1117.47 324 1098.13 324H949.867C930.533 324 912.931 335.147 904.666 352.626L548.754 1105.29C533.442 1137.67 536.618 1175.76 557.08 1205.16L903.282 1702.56C912.63 1715.99 927.957 1724 944.32 1724H1103.68C1120.04 1724 1135.37 1715.99 1144.72 1702.56L1490.92 1205.16C1511.38 1175.76 1514.56 1137.67 1499.25 1105.29L1143.33 352.626ZM1253.06 1181.4C1263.3 1166.7 1264.89 1147.65 1257.23 1131.45L1219.6 1051.87C1211.33 1034.39 1193.73 1023.24 1174.4 1023.24H873.605C854.27 1023.24 836.669 1034.39 828.403 1051.87L790.771 1131.45C783.113 1147.65 784.704 1166.7 794.942 1181.4L982.97 1451.38C1002.87 1479.94 1045.13 1479.94 1065.03 1451.38L1253.06 1181.4ZM1001.4 686.027C1010.42 666.943 1037.58 666.943 1046.6 686.027L1097.44 793.546C1105.29 810.13 1093.19 829.233 1074.84 829.233H973.157C954.812 829.233 942.714 810.13 950.557 793.546L1001.4 686.027Z" fill="#E02020"/>
</svg>
