<?xml version="1.0" encoding="UTF-8"?>
<svg width="456px" height="456px" viewBox="0 0 456 456" version="1.1" xmlns="http://www.w3.org/2000/svg" xmlns:xlink="http://www.w3.org/1999/xlink">
    <title>github</title>
    <g id="Page-1" stroke="none" stroke-width="1" fill="none" fill-rule="evenodd">
        <g id="github" fill="#2B2B2B" fill-rule="nonzero">
            <path d="M0.308042553,-9.11093111e-14 L0.308042553,455.12246 L155.677915,455.225842 L155.677915,455.12246 C162.154894,455.048731 167.117532,451.454425 167.345532,445.372555 C167.934128,429.564822 167.518553,413.723431 167.518553,398.440619 C155.960085,398.975156 144.925532,400.422496 134.015489,399.799002 C109.952596,398.425392 91.4619574,388.248337 81.8722128,364.892963 C76.191617,351.056689 67.6319149,339.222327 54.3011915,331.325272 C51.8117872,329.849083 49.6352766,327.67567 47.7304255,325.468598 C45.2410213,322.589947 45.7067234,319.632759 49.6401277,318.842573 C53.6082979,318.04277 57.9435319,317.48419 61.8567234,318.209462 C77.2257021,321.068879 87.8535745,330.623241 95.9888085,343.331135 C112.074936,368.472042 136.835574,376.167944 164.692809,364.557975 C166.245957,363.910439 168.22034,362.341286 168.513021,360.909174 C170.759064,349.780049 174.955234,339.632647 183.411447,330.736239 C174.010085,329.010011 165.301617,327.739782 156.761319,325.777139 C132.168851,320.136844 110.076298,309.989441 93.9206383,289.835684 C80.7394894,273.395641 74.7120426,254.150678 71.9412766,233.668344 C67.602,201.587262 71.4860851,171.556977 93.7128511,145.92 C94.8358723,144.624928 95.4446809,141.971473 94.9450213,140.358243 C89.3784255,122.329012 90.2289787,104.451248 95.7462553,86.6231705 C98.6415319,77.2603445 99.447617,76.7939262 109.086681,78.0986151 C109.676085,78.1771529 110.249319,78.3238102 110.833872,78.4223831 C130.15566,81.5911424 146.786723,90.8650123 163.169574,100.82168 C165.371957,102.16083 168.726468,102.994292 171.14634,102.410868 C210.27583,92.9991564 249.330936,93.0384253 288.455574,102.445329 C290.726681,102.989483 293.760213,102.214524 295.931872,101.086946 C304.838426,96.4716485 313.36417,91.1062355 322.384723,86.7305589 C332.879191,81.6448366 343.933149,77.8189244 355.833617,78.0296942 C357.91634,78.0689631 361.138255,80.0404218 361.835191,81.8652232 C368.995362,100.669413 370.504851,119.831831 364.799191,139.401364 C364.190383,141.490629 365.095915,144.467852 366.229447,146.527466 C371.860723,156.768633 379.722681,166.219613 383.285787,177.082671 C394.147319,210.193561 390.188851,242.981483 375.403617,274.100879 C361.855404,302.626123 336.729319,317.080281 306.986638,324.535761 C296.941702,327.052176 286.65017,328.58206 275.813702,330.69136 C290.014383,345.395557 292.241021,363.34064 291.988766,382.135213 C291.726809,401.522826 291.79634,420.916049 291.78583,440.308471 C291.780979,449.700949 295.917319,454.890053 303.136511,455.193786 C303.13166,455.225842 455.721064,455.225842 455.721064,455.225842 L455.721064,-9.11093111e-14 L0.308042553,-9.11093111e-14 Z" id="Path"></path>
        </g>
    </g>
</svg>